<svg id="Layer_1" data-name="Layer 1" xmlns="http://www.w3.org/2000/svg" viewBox="0 0 1000 1000"><defs><style>.cls-1{fill:#414141;}</style></defs><g id="uDoZ17"><path class="cls-1" d="M482.88,202.43h31.6c25.62,4.93,51.9,6,76.81,15.07,92.22,33.36,154.24,96.3,186.81,188.7,9.23,26.17,10.76,53.68,15.52,80.63v31.6c-5.13,24.77-6.27,50.3-15.24,74.35C737.94,701.34,664.31,771.27,548,792.24c-12,2.17-24.53.71-36.14,5.33h-29c-7.37-3.73-15.49-2.22-23.24-3.31C333.4,776.55,230.71,674.35,211.6,548c-1.89-12.48-.64-25.41-5.22-37.5V492.1c.83-3.76,2.16-7.48,2.41-11.28,2.12-32.13,8.16-63.44,20.77-93.13,40.05-94.3,109.57-154.23,209.57-177.91C453.49,206.38,468.29,204.83,482.88,202.43ZM247.11,504c4,154.1,128.93,259.72,265.9,253.51,132-6,256.68-125.15,239-290.7-10.89-102.15-104-236.88-275.31-225C348.71,250.77,238,376.73,247.11,504Z"/><path class="cls-1" d="M354,690.81c34.45-59.49,67.72-117.63,101.85-175.25,6.62-11.18,6.63-19.43,0-30.63C422.76,428.74,390.52,372,358,315.5c-1.05-1.81-2-3.69-3.53-6.64H646.11c-6.51,11.36-12.63,22.17-18.87,32.91-28.81,49.59-57.46,99.29-86.71,148.63-4.49,7.58-4,12.73.27,20C575.1,568.46,609,626.76,642.94,685c.86,1.48,1.54,3.06,2.92,5.82Z"/></g></svg>