<svg id="Layer_1" data-name="Layer 1" xmlns="http://www.w3.org/2000/svg" viewBox="0 0 1000 1000"><defs><style>.cls-1{fill:#414141;}</style></defs><g id="cojo5s.tif"><path class="cls-1" d="M499.9,205.1c162.64,0,295,132.45,295,295.16C794.87,662.7,662.22,795,499.38,794.9c-162.52-.06-294.41-133-294.28-296.6C205.23,337.46,338.31,205.11,499.9,205.1ZM250.43,499.85C250.24,636.6,362.37,749,499.51,749.57c136.52.55,249.63-112,250.06-248.73.44-137.15-112-250.19-249.07-250.41S250.62,362.6,250.43,499.85Z"/><path class="cls-1" d="M500.12,704.16C390.19,704.8,298.48,615,295.76,505.25c-2.85-114.57,89.73-207.14,199.52-209.52,115-2.48,207.62,91,209,201.49C705.74,611.49,611.69,704.8,500.12,704.16Zm-.21-45.39c87.14.05,158.73-71.47,158.86-158.69s-71.63-158.85-159.4-158.84c-86.19,0-158.15,71.89-158.13,158C341.27,587.11,412.48,658.72,499.91,658.77Z"/><path class="cls-1" d="M500.58,386.59c62.23.1,112.14,49.84,113.06,110.61,1,65.28-50.66,118.34-117.4,116.28-61.62-1.9-110.94-51.79-109.86-116.72C387.4,435.69,437.69,386.49,500.58,386.59Zm54.08,186.85c1-2,.4-3.26,0-4.62-4.7-15.55-9.34-31.12-14-46.67-4.6-15.23-4.59-15.17,7.87-25,13.27-10.44,26.45-21,39.66-31.49a16.05,16.05,0,0,0-7.94-1.48c-16.06,0-32.13-.34-48.18.13-5.91.17-8.11-2.1-9.92-7.27-6.23-17.75-13-35.32-20-54.24-6.48,19.32-12.7,37.3-18.45,55.43-1.49,4.7-3.68,6.13-8.51,6-14.88-.32-29.76-.11-44.64-.11H416.86c12.85,12.3,26.1,22.82,39.4,33.26,12,9.43,12,9.39,7.25,23.69-5.74,17.3-11.42,34.61-17.67,53.57,16.92-12.76,32.57-24.15,47.7-36.2,5-4,8.16-3.8,13.15,0C522.4,550.44,538.59,561.8,554.66,573.44Z"/></g></svg>