<svg id="Layer_1" data-name="Layer 1" xmlns="http://www.w3.org/2000/svg" viewBox="0 0 1000 1000"><defs><style>.cls-1{fill:#414141;}</style></defs><g id="uEFNkZ.tif"><path class="cls-1" d="M784.11,500.89c-33,17.06-67.26,31.13-103.23,40.74a76.17,76.17,0,0,1-14.54,2.71L693.16,513c-1.67-1.11-3.15-.65-4.53-.65q-126.71,0-253.41-.08a8.62,8.62,0,0,0-6.88,2.83c-6.08,6.34-12.42,12.43-18.56,18.71a6.81,6.81,0,0,1-5.39,2.22c-11.71-.09-23.42-.18-35.13,0-3.39.07-5.22-1-6.82-4C354.39,517,346.08,502,338,487a18.37,18.37,0,0,0-4.7-5.66c-7.48-6.12-14.89-12.32-22.31-18.5-1-.81-1.83-1.73-2.82-2.67,1.43-1.05,2.77-.61,4-.61,30.6,0,61.19,0,91.79-.1a7.63,7.63,0,0,1,6.59,3.25c6.17,7.63,12.53,15.09,18.74,22.68a5.6,5.6,0,0,0,4.78,2.37q128.67-.08,257.36-.06c.43,0,.86-.09,2.18-.24l-28.21-33c42.89,8.85,82.18,23.6,118.75,45.55Z"/><path class="cls-1" d="M458.14,148.35a70.27,70.27,0,0,1,31.39,16.31c2.84,2.55,3.2,4.47,1.44,7.75-2.53,4.72-5.17,9.54-4.9,15.22.05.88-.2,1.91.18,2.6,3.17,5.81-.37,10.16-3,14.74q-6.44,11.21-12.84,22.42c-.85,1.5-1.48,2.93-3.48,1.1-12.67-11.66-24.6-23.9-29.23-41.21a58.19,58.19,0,0,1,2.88-38.93Z"/><path class="cls-1" d="M631.37,515.87c6.3,0,12.59.07,18.89,0,2.27,0,3,.46,2.64,3-1.47,8.79-2.63,17.63-4,26.43-.44,2.81.35,4.46,2.86,6.07,13,8.32,24.28,18.4,31.86,32.06,11.64,20.93,10.36,42.45,1.8,63.87-9.57,24-25,43.88-44.4,60.7-5.57,4.82-12.76,7-19.34,10.1-24.71,11.59-50,21.92-74,35.05A296.11,296.11,0,0,0,514.19,774c-2.33,1.71-4.23,1.74-6.77.73-10-4-15.33-12.2-19.76-21.33-1.12-2.32.73-2.87,1.87-3.73a244.24,244.24,0,0,1,22.74-14.9c24.33-14.57,49.3-28.09,72.35-44.72,11.67-8.41,22.7-17.53,32.25-28.36,23.19-26.32,22.92-52.79-.82-78.63a109.68,109.68,0,0,0-13.52-12.52,4.78,4.78,0,0,1-1.94-5.29c2.87-15.36,5.79-30.71,8.47-46.11.45-2.59,1.3-3.38,3.87-3.31C619.07,516,625.22,515.87,631.37,515.87Z"/><path class="cls-1" d="M631.09,484.11c-6,0-12-.08-18,0-2.39.05-3.53-.4-4-3.17-2.66-15.4-5.6-30.75-8.48-46.11a5.14,5.14,0,0,1,2.11-5.63c9.62-7.76,18.22-16.5,24.43-27.35,8.91-15.57,9.29-31.35,1-47.26-8-15.43-20.55-26.88-33.91-37.49-19.08-15.14-40.09-27.34-61-39.66C518.74,269,504,260.77,490.31,251c-2.79-2-3.32-3.5-1.62-6.68,4.61-8.61,10.13-16.08,19.79-19.48,1.58-.56,2.88-.87,4.45.27,29.65,21.58,63,36.19,96.24,51,6.8,3,13.4,6.53,20.31,9.3,13.52,5.42,22.39,16.21,31.31,26.82,12.81,15.24,23.15,32,28.29,51.48,8.49,32.17-2.22,57.7-27.58,77.93a91.68,91.68,0,0,1-10,7.11c-2.43,1.45-3,3.14-2.64,5.75,1.38,8.81,2.52,17.66,4,26.44.48,2.82-.49,3.22-2.89,3.18C643.69,484,637.39,484.11,631.09,484.11Z"/><path class="cls-1" d="M325.53,494.41c.26-3.42.66-6.6,3-9.13,2.1-2.27,3.67-2.73,5.48.64,7.2,13.39,14.65,26.64,22,39.95q62.24,112.67,124.4,225.37c7,12.67,17,22.24,27.85,31.23.91.74,1.82,1.47,2.72,2.23,6,5.08,6.47,8.43,2.26,16.57-2.91,5.64-7.58,7.33-14.45,5.6a13.61,13.61,0,0,1-9.62-7.88c-29.45-59.85-63.63-117.13-95.54-175.64-21.35-39.15-43.14-78.05-64.87-117C326.59,502.48,326.09,498.43,325.53,494.41Z"/><path class="cls-1" d="M354.29,455.9c-9.21,0-9.22,0-5.15-7.07q61-106.09,122-212.22c7-12.17,12.84-25,19.05-37.54,2.82-5.7,8.14-6.18,13.29-6.64s8.1,2.67,10.09,7c.25.53.5,1.06.7,1.61,3.09,8.38,3,9.3-4,14.71-14.2,11-25.25,24.31-34.22,40-36.95,64.78-74.6,129.17-111.83,193.79C361.59,454.19,359.15,457.78,354.29,455.9Z"/><path class="cls-1" d="M448.84,851.62c-10.37-.33-8.68,1.51-11.3-9-5.47-22,1-41,15.75-57.44,4.18-4.68,8.88-8.9,13.26-13.41,1.74-1.8,2.65-1.45,3.81.63,5.43,9.67,11,19.28,16.49,28.92.62,1.1,1.44,2.12.75,3.64-3.24,7.26-1,13.93,2.24,20.55,3.69,7.64,4.19,5.63-2.31,11.31C476.47,846.44,463.81,852.09,448.84,851.62Z"/><path class="cls-1" d="M332.1,515.6c3.15,6.26,6.14,12.23,9.14,18.19.65,1.29.77,2.18-1.16,2.18-10.6,0-21.2,0-32.22-1Z"/></g></svg>