<svg id="Layer_1" data-name="Layer 1" xmlns="http://www.w3.org/2000/svg" viewBox="0 0 1000 1000"><defs><style>.cls-1{fill:#414141;}</style></defs><g id="ZHqBrz"><path class="cls-1" d="M790.27,481.18c.35,179.31-129.87,308.93-289.93,309.06C339.8,790.38,209.71,661,209.73,500.43c0-159,121.46-270,245-287.29,87.69-12.3,166.18,8.71,233.66,66C756.08,336.69,788.37,411.48,790.27,481.18ZM369.87,349.12c-1.56,2.17-2.55,3.62-3.6,5Q345.12,382.54,324,411c-1.18,1.59-2.81,2.88-2.19,5.52,3.45,14.72,6.73,29.48,10,44.24,3.05,13.88,5.9,27.8,9,41.66.75,3.32-.37,4.16-3.49,4.45-11.33,1-22.63,2.32-33.95,3.52-1.46.15-3.46,0-3.53,2-.1,2.36,2.15,2,3.69,2.21,5.65.65,11.31,1.22,17,1.83,5.95.65,11.9,1.35,17.86,1.94,3.69.37,4,3,4.14,5.81.17,2.45-1.31,2.56-3.11,2.68-21.67,1.41-43.32,3.17-65.05,3.64a27,27,0,0,0-4,.4c-1.05.19-2.15.64-2.21,1.89-.07,1.51,1.14,2.1,2.36,2.21,3,.28,6,.22,9,.6,19.73,2.58,39.43,5.3,59.16,7.8,3.45.44,4.11,1.73,3.46,5-2.69,13.62-5.21,27.28-7.67,40.94-3,16.75-5.77,33.55-8.9,50.28-.78,4.13.21,6.61,3.7,9,20.07,13.9,40,28,59.94,42.1,1.15.81,3.36,1.23,2.95,3-.47,2-2.78,1.35-4.27,1.54-11.87,1.45-23.76,2.78-35.65,4.13-1.46.17-3.2-.1-3.72,1.77-.47,1.71,1.05,2.26,2.14,3,9.09,6.33,18.17,12.63,28,17.88a262,262,0,0,0,64.35,24.64,239.86,239.86,0,0,0,42,6.2,256.49,256.49,0,0,0,118.62-21.72A244.54,244.54,0,0,0,657.9,698a241.91,241.91,0,0,0,46.26-48.65c13.4-18.87,24.73-38.74,32.84-60.48A249.7,249.7,0,0,0,751.59,527c2.73-26.32,2-52.42-3.76-78.33a293.77,293.77,0,0,0-8.17-30.3,250.46,250.46,0,0,0-84.25-118.3,256.11,256.11,0,0,0-103.88-48.2,245.77,245.77,0,0,0-72.88-4.25,251.93,251.93,0,0,0-150.31,66.41,306.15,306.15,0,0,0-21.72,22.56c-2.58,3-1.58,5.64,2.13,5.9,10.57.75,21,2.51,31.55,3.53C349.82,347,359.23,348.75,369.87,349.12Z"/><path class="cls-1" d="M498.7,703.6c-17.14,1.53-34.12,3-51.09,4.59-6.9.64-13.1.58-19.17-4.37q-20.82-16.94-42.8-32.44c-13-9.12-25.31-19.06-38.43-27.94-3.18-2.15-4.1-4.46-3.48-8.15,3.56-21.34,7-42.7,10.4-64.06,1.38-8.57,2.79-17.14,4-25.74.5-3.5,1.47-5,5.45-3.65,5.5,1.9,11.23,3.12,16.85,4.64,1.25.34,2.69,1.36,3.6-.26s-.42-2.52-1.44-3.39q-8-6.89-16.05-13.7a14.6,14.6,0,0,1-5.16-7.62q-12.51-47.1-25.38-94.09c-1.3-4.74-.88-8.29,2.2-12.39,9.07-12.08,17.56-24.61,26.33-36.93,10.69-15,21.63-29.85,32-45.06,3.61-5.29,8.88-7.93,13.85-11.08,18.23-11.55,36.61-22.85,54.91-34.3a10.44,10.44,0,0,1,5.94-1.61q38,.46,76,.89c1.67,0,3.34.09,4.54,1.47,5.62,6.46,11.87,12.21,12.64,21.89,1.16,14.61,3.45,29.13,5.28,43.68,1.45,11.55,3,23.08,4.38,34.63.64,5.3-1,10.4-1.86,15.54-2.46,14.88-5.24,29.71-7.78,44.57-.49,2.83-1.66,4-4.65,4.24-23.58,1.75-47.15,3.56-70.69,5.65-3.86.34-5.33-1-6.44-4.27-6.38-19-12.95-38-19.34-57-4.09-12.17-8-24.4-12-36.61-.46-1.43-1.17-2.64-2.81-2.18s-1.65,1.85-1.42,3.33q2.73,17.75,5.37,35.51c.29,2,1.42,4.55-.92,5.72s-3.79-1.06-5.33-2.45c-.56-.5-1-1.32-1.66-1.45-1.65-.33-3.43-2.59-4.87-.78s.88,3.09,2,4.37c4.64,5.49,9.94,10.54,13.83,16.53a26.56,26.56,0,0,1,3.05,23.21,50,50,0,0,0-1.31,6.91c-3.16,17.37-6.1,34.79-10,52a7.78,7.78,0,0,0-.37,1.76c0,5.64-1.8,8.21-8.29,9.48-8.87,1.74-17.73,4.1-26.58,6.26-2.76.67-5.59,1-8.37,1.66-1.23.27-3,.14-3,2s1.64,2.3,3.18,2.51c6.82.93,13.64,1.83,20.46,2.76,1.63.23,3.28.85,4.87.72,6.12-.47,7.43,3.29,8,8.27,2.24,18.87,4.62,37.73,7,56.58.8,6.39,1.76,12.76,2.58,19.14.27,2.16.77,4.33,2.37,5.71,8.54,7.34,10.59,17.75,13.42,27.81,4.34,15.38,8.62,30.77,13,46.16a7.21,7.21,0,0,0,5.07,5.22C486.6,699.45,492.61,701.54,498.7,703.6Z"/><path class="cls-1" d="M469.28,452.79c1.78,5.68,3.64,11.33,5.32,17,1,3.33,2.94,4.35,6.37,4,27-2.45,54-4.5,80.93-7.24,14.29-1.45,11.42,1.2,14.36-12.08q2.24-10.08,4.17-20.23c.69-3.62,2-5.07,6.29-4.76,12.39.87,24.84.92,37.26,1.41q32.29,1.28,64.6,2.71c3.32.14,5.34,1.25,5.84,5.19,2,15.58,4.49,31.09,6.48,46.68.58,4.58-.64,9.22-1.53,13.77-2.69,13.8-5.48,27.57-8,41.39-.65,3.58-2,5-5.87,4.92-41.76-1.39-83.53-2.47-125.28-4-9.89-.37-19.77-.29-29.65-.62a22.69,22.69,0,0,1-7-1.23Q494,529.09,464.38,518.46c-8.52-3.06-8.35-3-6.55-11.93,3.48-17.27,6.73-34.59,10.08-51.88.11-.56.31-1.12.46-1.67Z"/><path class="cls-1" d="M647.63,639.52c-19.15-.47-39.68-.56-60.15-1.6-20.79-1-41.6-1.29-62.38-2.41-6.17-.34-11.28-3.89-16.82-6C494,624,480,617.84,465.87,612.15c-4.54-1.83-6.94-4.22-7.58-9.64-2.43-20.62-5.53-41.17-8.56-61.73-.4-2.71.31-3.64,2.8-4.4a31.31,31.31,0,0,1,19.72.23c16.6,5.51,33.44,10.26,50,15.84,6.64,2.24,13.35,1.76,20,2.21,15.83,1.08,31.71,1.44,47.57,2.06q26.48,1,53,2c7.63.29,15.27.43,22.88.94,2.83.19,6.29-.14,5,5.18-5.51,23.3-10.66,46.68-15.89,70C654.07,638.13,653.17,640.88,647.63,639.52Z"/><path class="cls-1" d="M648.38,328.26a33.12,33.12,0,0,0,4.46,0c4-.66,6.31,1.17,8,4.75,3.39,7,7.47,13.66,10.63,20.74,2,4.47,1.67,9.67,2.29,14.51,2,15.73,3.25,31.55,5.06,47.3.48,4.21-1,5-4.83,4.87-28.6-.71-57.2-1.2-85.8-1.79-4.53-.09-5.72-1.61-5-6.23s1.4-9.17,2.34-13.71c2.34-11.18-.94-22-1.91-33s-2.36-21.7-3.77-32.52c-.31-2.43.77-2.36,2.46-2.4,16.92-.41,33.8-1.7,50.74-1.71C638.48,329,643.86,328.5,648.38,328.26Z"/><path class="cls-1" d="M632.81,652.53c-4.46,7.05-8.71,13.88-13.07,20.64-3.41,5.28-7.25,10.31-10.33,15.76-1.71,3-3.82,4.13-7,4.63-16.26,2.53-32.49,5.21-48.73,7.88a55.86,55.86,0,0,0-6.56,1.41c-8.66,2.52-16.07-2.3-23.92-4.17-10.11-2.4-20-5.78-30-8.6-4.48-1.26-7.17-3.47-8.39-8.44-4.18-17-9-33.77-13.48-50.65-.34-1.26-1.35-2.79-.32-3.83,1.28-1.29,2.78,0,4.09.57q22.47,9.13,44.9,18.36a16.84,16.84,0,0,0,5.62,1.45q29.85,1.32,59.68,2.69C601,651,616.63,651.74,632.81,652.53Z"/></g></svg>