<svg id="Layer_1" data-name="Layer 1" xmlns="http://www.w3.org/2000/svg" viewBox="0 0 1000 1000"><defs><style>.cls-1{fill:#414141;}</style></defs><g id="GtAiyL"><path class="cls-1" d="M499.88,785.83h-66.8c-1.61,0-3.14.09-4.63-1-22.88-17.27-45.62-34.71-65.64-55.39a40,40,0,0,1-9.9-16.13c-3.65-11.59-8.74-22.83-10.94-34.74-3.64-19.74-8.32-39.25-12.18-58.93-2.58-13.17-5.7-26.25-6.18-39.75-.08-2.06-1.62-3.39-2.8-4.76-4.3-5-6.26-10.41-6.47-17.33-1-32.9-2.73-65.78-4.19-98.66-.28-6.4-.47-12.81-.81-19.21a7.74,7.74,0,0,1,1.73-5.54c2.41-3.06,4.53-6.35,7-9.33a7,7,0,0,0,1.73-6.6c-2.76-10.5-1.1-20.94.31-31.39,2.71-20.15,5.39-40.31,8.87-60.35,2.63-15.2,5.32-30.38,9.66-45.23a23,23,0,0,1,6.65-10.65c17.36-16.25,37.36-28.34,59.19-37.48a246,246,0,0,1,74.23-18.25c54.61-4.71,105.16,7.66,151.63,36.63a154.84,154.84,0,0,1,25.12,19.82,20.86,20.86,0,0,1,5.8,9.45c4.79,16.16,7.61,32.72,10.41,49.29,3.8,22.41,6.56,45,9.7,67.46,1,6.85.18,13.5-1.06,20.15-.49,2.66-.34,4.91,1.56,7,.93,1,1.52,2.36,2.51,3.29,6,5.6,6.62,12.61,6.15,20.31-1,16.92-1.58,33.88-2.32,50.83q-1.44,32.76-2.85,65.52a5.74,5.74,0,0,1-1.37,3.79c-5,5.66-7.54,12-8.39,19.83-2.48,23-9,45.24-13,68-3.72,21.1-9.79,41.41-17.07,61.47-1.62,4.48-4.68,7.7-7.74,11-15.29,16.28-32.68,30.16-50.21,43.89-4.55,3.56-9.3,6.87-13.78,10.52a11.54,11.54,0,0,1-7.87,2.7C543.92,785.77,521.9,785.83,499.88,785.83ZM655.54,337.48c0-6.29-.13-12.59,0-18.87.2-7.5-1.22-14.19-6.54-20S638.35,286.88,632,282c-20.86-16-44.72-25-70.19-30.37-2.24-.47-2.47.34-2.58,2.22-.48,8-.88,16.07-1.74,24.06-2.6,24.34-6.2,48.55-10.43,72.66-1.26,7.18-2.64,14.33-7.08,20.42-3.19,4.38-6.94,7-12.9,6.87-19.37-.34-38.75-.19-58.12-.07a11.34,11.34,0,0,1-8.41-3.44,30,30,0,0,1-8.49-16.49c-6.34-34.33-11.71-68.8-13.62-103.71-.13-2.33-.6-2.91-3.1-2.4a184.28,184.28,0,0,0-49.21,17.15c-16.12,8.42-30.34,19.22-40.78,34.42-1.32,1.93-2.95,3.71-2.95,6.35,0,5.53-.27,11.05-.29,16.58-.08,24.27.16,48.53,1.33,72.77.8,16.67,1.82,33.36,5.19,49.78.4,1.95.94,3.78.31,5.89-7.18,24.3-12.35,49.1-18.33,73.7a11,11,0,0,0,.44,6.88c9.24,23.82,22.32,45.48,37.3,66,9.86,13.53,19.2,27.31,25.76,42.79,4.55,10.75,7.93,21.77,6.38,33.6-.39,2.95.33,4.43,2.5,6.2,5.93,4.85,11.93,9.67,17.09,15.37,1.84,2,2.37,1.09,3.3-.65,3.16-5.86,6.47-11.62,9.62-17.48a3.87,3.87,0,0,1,3.75-2.44c21-.43,42-1.35,62.94-1.35,20.48,0,41,.92,61.44,1.35A3.54,3.54,0,0,1,564.6,681c3.28,6.07,6.65,12.09,10,18.13.61,1.1,1,2.41,2.57.67,5.8-6.31,12.47-11.68,19.06-17.12a3,3,0,0,0,1.29-3.2c-1.42-7.43-.62-14.76,1.41-22,5.61-19.9,16.4-37,28.52-53.49,15.31-20.79,28.71-42.68,38.46-66.69a16.26,16.26,0,0,0,.8-10.47c-5.78-24.13-11-48.39-18-72.24a6.82,6.82,0,0,1-.22-3.69c3.05-12.5,4.05-25.29,4.92-38C655.17,387.76,655.48,362.62,655.54,337.48ZM599.3,702.64l-1.38-.78c-7.28,7.64-14.61,15.23-21.81,22.94-1.76,1.89-2.61,1.77-4.21-.27-5.12-6.53-10.51-12.84-15.76-19.26a5,5,0,0,0-4.06-2.2c-13.57-.24-27.14-.6-40.71-.94-22.38-.57-44.74.7-67.11.89a8.49,8.49,0,0,0-7.49,3.8c-4.57,6-9.54,11.68-14.27,17.55-1.42,1.77-2.41,2.4-4.33.36-4.23-4.48-8.74-8.68-13.16-13-3.21-3.11-6.45-6.2-9.94-9.56-3.21,11.61-6.26,22.7-9.35,33.78-.51,1.84.13,3,1.53,4.21,9.13,7.89,18.24,15.8,27.22,23.85,1.85,1.65,3,1.76,5,.22,7.71-6,15.62-11.84,23.33-17.89A15.28,15.28,0,0,1,453,742.63c5.39.1,10.79-.82,16.18-.74,4.91.08,8.35-1.59,10.3-6.14,1.09-2.54,3-3.19,5.75-3.12,6.91.18,13.85.39,20.74-.06,5-.32,8.43,1,10.46,5.65,1,2.22,2.55,3.25,5.26,3.32,7.28.18,14.54.94,21.81,1.21a9.59,9.59,0,0,1,5.84,2c8.57,6.58,17.22,13.06,25.79,19.64,1.52,1.17,2.6,1.48,4.21,0,9.28-8.29,18.65-16.48,28-24.71.83-.73,1.86-1.3,1.46-2.75Q604,719.83,599.3,702.64Z"/><path class="cls-1" d="M575.57,485.36c-10.08-.35-20.74-.8-31.36-2-2-.24-3.21-1-3.93-2.8-.41-1-1.22-1.94-1.54-3-2-6.58-6.42-8.18-13.06-7.8-19.2,1.09-38.44.7-57.65,0-3.81-.12-6.39.79-7.43,4.52-2.28,8.27-8.33,9.52-16,10-18.61,1.19-37.13,1.71-55.54-1.91-8.54-1.69-16.78-4.26-24.12-9.11-8-5.31-9.5-9.21-7-18.48.87-3.26,2.28-6.37,3.25-9.6.66-2.17,1.67-2.57,3.82-1.83a439.94,439.94,0,0,0,60.23,16,396.82,396.82,0,0,0,74.83,7.13c45.29,0,88.93-8.89,131.72-22.86,2.87-.94,3.93-.39,4.85,2.25a117,117,0,0,1,3.61,12.24c1.24,5.49-.58,9.54-4.78,12.89-8,6.37-17.36,9.33-27.14,11.35C597.73,484.58,587,485.14,575.57,485.36Z"/></g></svg>