<svg id="Layer_1" data-name="Layer 1" xmlns="http://www.w3.org/2000/svg" viewBox="0 0 1000 1000"><defs><style>.cls-1{fill:#414141;}</style></defs><g id="jKVQtI.tif"><path class="cls-1" d="M156.06,638.34q0-137.72,0-275.42c0-1,.23-1.26,1.27-1.26q343.34,0,686.67,0c0,.68-.09,1.36-.09,2.05V636c0,.42,0,.83,0,1.24.1.82-.18,1.22-1.06,1.09a7.69,7.69,0,0,0-1,0h-684C157.25,638.3,156.65,638.32,156.06,638.34Zm387.68-217.6c-.18-.12-.28-.15-.32-.21-.32-.56-.63-1.12-.95-1.67-6.87-12-16.18-21.58-28.54-28-9.8-5.07-20.32-7.15-31.29-7.15H442.46a5.14,5.14,0,0,1-.68,0c-.94-.11-1.24.36-1.16,1.22,0,.36,0,.73,0,1.1l-.09,200.9v1.32c-1.89-11.53-3.65-23-5.38-34.58-1.7-11.31-3.35-22.62-5-33.93-1.52-10.08-3.08-20.16-4.59-30.25-1.61-10.67-3.17-21.35-4.77-32q-2.82-18.8-5.69-37.58c-1.74-11.53-3.5-23.06-5.16-34.6-.19-1.32-.65-1.61-1.89-1.6q-26.34,0-52.69-.06c-1.3,0-1.58.49-1.74,1.62-.9,6.38-1.87,12.76-2.83,19.14q-1.87,12.41-3.74,24.82t-3.69,24.7q-1.86,12.42-3.74,24.83t-3.69,24.69q-1.87,12.42-3.74,24.83t-3.73,24.83q-1.85,12.35-3.7,24.69-1.27,8.46-2.54,16.93a2.63,2.63,0,0,1-.22-1.18q0-11.82,0-23.65,0-92.11,0-184.25c0-1.91,0-1.92-1.95-1.92q-25,0-49.95,0c-1.17,0-1.63.27-1.82,1.54-1.15,7.64-2.41,15.26-3.63,22.89q-2.28,14.16-4.56,28.31c-1.51,9.44-3,18.88-4.5,28.31L251,493.32q-.74,4.55-1.48,9.09a77.51,77.51,0,0,1-1.48-7.68L244,469q-2.11-13.56-4.23-27.11t-4.25-27.38C234,404.73,232.44,395,231,385.21c-.17-1.12-.51-1.53-1.7-1.52q-25.25.06-50.5,0c-1.19,0-1.56.3-1.55,1.53.06,6.46,0,12.93,0,19.39V614c0,2.08,0,2.08,2.14,2.08h38.25c2,0,1.75.25,1.75-1.76q0-53.49,0-107V506c1.75,9.24,3.32,18.47,4.9,27.71q2.66,15.62,5.32,31.23t5.39,31.5c1,6.13,2.07,12.26,3.12,18.39.11.66.14,1.27,1.19,1.26,6.84,0,13.67,0,20.5,0,.72,0,1-.18,1.16-1,.35-2.45.82-4.87,1.22-7.31q2.69-16,5.36-31.92l5-30,5.13-30.44q.81-4.77,1.64-9.56l.15,0v1.48q0,53.57,0,107.12c0,1.18.22,1.62,1.55,1.62q39-.07,78,0c1.26,0,1.61-.43,1.76-1.57,1.45-11,3-21.94,4.44-32.91.13-1,.47-1.34,1.54-1.33,9.86,0,19.72.06,29.58,0,1.37,0,1.67.52,1.81,1.67.36,3.09.79,6.17,1.21,9.25,1.06,7.75,2.16,15.49,3.16,23.25.16,1.26.54,1.65,1.83,1.64q38.11,0,76.22,0c2.16,0,1.94.23,1.94-1.89q0-35.74,0-71.5c0-.36,0-.73,0-1.1-.05-.67.2-1,.91-1,2.4-.31,4.82-.58,7.19-1.09,1.35-.29,1.65.15,2,1.34q9.61,36.87,19.28,73.74a1.73,1.73,0,0,0,2,1.57c12.7-.05,25.4,0,38.11,0,1.65,0,1.66,0,1.18-1.64q-12.78-43.47-25.54-86.95c-.23-.79-.61-1.49.35-2.28,9.84-8.11,16.4-18.5,20.71-30.38a59,59,0,0,0,3.67-22.5c.75,3.9,1.41,7.8,2.06,11.71L559.58,515q2.52,15.16,5,30.31,2.68,16.11,5.34,32.21c2.07,12.49,4.17,25,6.22,37.48.15.92.42,1.34,1.45,1.34q23.46-.15,46.91-.21c.73,0,1.09-.2,1.2-1q1.8-11.52,3.62-23,2.26-14.29,4.54-28.58t4.55-28.73q2.13-13.41,4.27-26.82l4.53-28.59q2.1-13.35,4.22-26.7,2.28-14.43,4.59-28.85l2.52-15.81h.21v206.2c0,1-.28,1.89,1.42,1.89q38.31-.09,76.63,0c1.17,0,1.45-.35,1.44-1.47q0-19.45,0-38.91c0-1.22-.35-1.54-1.55-1.53-11.47,0-22.93,0-34.4,0-1.31,0-1.77-.22-1.76-1.68q.09-24.89,0-49.78c0-1.3.28-1.69,1.64-1.68,11.42.06,22.84,0,34.26,0,1.77,0,1.77,0,1.77-1.82,0-13,0-26,0-39.05,0-1.34-.27-1.79-1.72-1.78-11.51.06-23,0-34.54.06-1.14,0-1.44-.3-1.44-1.44q.06-24.69,0-49.37c0-1.24.35-1.5,1.53-1.5,11.47,0,22.93,0,34.4.06,1.38,0,1.78-.35,1.77-1.76,0-13,0-26,0-39.05,0-1.79,0-1.8-1.8-1.8q-57.32,0-114.61,0c-1.4,0-1.76.45-1.93,1.73-.8,6.36-1.69,12.7-2.56,19q-1.59,11.63-3.19,23.25-1.45,10.55-2.9,21.07l-2.88,21.08q-1.44,10.47-2.87,20.93-1.59,11.63-3.19,23.25c-.46,3.34-.93,6.68-1.39,10-.59-3.1-1-6.18-1.42-9.26q-1.46-10.66-2.9-21.34-1.59-11.64-3.15-23.26l-2.91-21.48q-1.46-10.62-2.89-21.22t-2.89-21.35c-.95-7-1.91-14.05-2.83-21.08-.14-1.08-.59-1.38-1.68-1.37-8.48.05-17,0-25.45,0-4.72,0-9.45,0-14.17,0-1.11,0-1.71.08-1.4,1.48s.42,3.17.62,4.76l2.64,21C542.93,414.16,543.33,417.41,543.74,420.74Zm201.65,79.11q0,57.33,0,114.67c0,1.18.2,1.62,1.54,1.62q37.22-.07,74.42,0c1.22,0,1.52-.31,1.51-1.51q-.06-19.46,0-38.91c0-1.21-.29-1.52-1.51-1.52-11,0-21.92,0-32.88,0-1.07,0-1.53-.26-1.36-1.36a8.41,8.41,0,0,0,0-1.23V385.49c0-1.82,0-1.82-1.86-1.82h-38c-2.12,0-1.87-.25-1.87,1.93Q745.39,442.74,745.39,499.85Z"/><path class="cls-1" d="M482.54,462.57V427c0-1.71,0-1.68,1.66-1.52,11.81,1.16,19.62,7.61,23.29,18.63,4.29,12.86,4.34,25.86-1.19,38.47-3.6,8.2-9.53,14.16-18.4,16.68a38.8,38.8,0,0,1-4,.73c-1,.19-1.35-.15-1.35-1.22.05-6.55,0-13.1,0-19.66Z"/><path class="cls-1" d="M381.94,445.46l1.65,13.74q1.19,9.74,2.36,19.48c.78,6.45,1.54,12.9,2.32,19.35s1.57,13,2.35,19.48,1.55,12.89,2.33,19.34c.23,1.91.42,3.82.7,5.72.11.69,0,.88-.73.88q-10.79,0-21.59,0c-.75,0-.93-.25-.84-1q1.61-13.41,3.17-26.84c.88-7.5,1.7-15,2.57-22.5s1.78-15,2.65-22.49,1.72-15,2.58-22.49c.1-.9.23-1.79.34-2.69Z"/></g></svg>