<svg id="Layer_1" data-name="Layer 1" xmlns="http://www.w3.org/2000/svg" viewBox="0 0 1000 1000"><defs><style>.cls-1{fill:#414141;}</style></defs><path class="cls-1" d="M532,816.91c20.9-12.75,41.19-26.44,67.46-26.61,10.39-.06,24.23-2.81,28.43-12.17,12.17-27.14,38.56-34,60.65-46.91,30.52-17.87,39-46.65,21.44-76.9-12.35-21.22-25-42.23-37.65-63.3-38.15-63.74-48-66.2-112.77-28.41C527.18,581.48,528,581,510.42,547.93,475.17,481.51,439,415.56,403.06,349.5c-21.12-38.8-42.65-77.37-63.73-116.2-2.94-5.43-8.12-12.31-3.07-17.83s12.47-.89,18.45,1c49.1,26.51,74-7.07,87.71-21.39,3.5-3.64,2.61-9.81-1.65-13.35-15.73-13.07-34.19-14.26-53.29-10.88a47.08,47.08,0,0,0-16,5.68c-25.89,15.74-51.29,32.3-77.32,47.82-14.15,8.43-16.72,18.19-8.68,32.48,16.85,29.93,33.21,60.15,49.4,90.45Q400.23,469.51,465.21,592c6,11.26,8.43,20.47-8.18,26.45-14.43,5.19-27.81,13.75-41,21.9-28.33,17.51-34,35.16-18.75,63.7q25.38,47.65,53.5,93.83C473.6,835.25,494.73,839.62,532,816.91Zm-177-615.5c.62-8.71,12.48-11.8,20.56-15.46a33.1,33.1,0,0,1,14.13-3.17c10.52.34,24.79-7.82,30.3,6.32,5.87,15.1-7.75,20.92-18.62,26.8-3.3,1.79-21.36,3.46-26.62.29C367.4,211.82,354.2,211.48,354.92,201.41Z"/></svg>